<svg width="140" height="140" viewBox="0 0 140 140" fill="none" xmlns="http://www.w3.org/2000/svg">
<circle cx="70" cy="70" r="68.5" stroke="#A1874D" stroke-width="3"/>
<path d="M57.375 45C57.375 29 62.375 21 70.375 21C78.375 21 83.375 29 83.375 45V78" stroke="#A1874D" stroke-width="3.5" stroke-linecap="round" stroke-linejoin="round"/>
<path d="M29.375 61H111.375L104.375 118H36.375L29.375 61Z" stroke="#A1874D" stroke-width="3.5" stroke-linecap="round" stroke-linejoin="round"/>
<path d="M45.375 68V113M61.375 68V113M77.375 68V113M93.375 68V113" stroke="#A1874D" stroke-width="3.5" stroke-linecap="round" stroke-linejoin="round"/>
<path d="M36.375 83H104.375M38.375 99H102.375" stroke="#A1874D" stroke-width="3.5" stroke-linecap="round" stroke-linejoin="round"/>
<path d="M23.375 55C25.375 49 32.375 48 35.375 53M29.375 47C35.375 47 37.375 53 34.375 57M43.375 48C39.375 51 39.375 56 43.375 59M32.375 57C36.375 62 43.375 62 49.375 59" stroke="#A1874D" stroke-width="3.5" stroke-linecap="round" stroke-linejoin="round"/>
<path d="M98.375 59C104.375 50 112.375 50 116.375 57" stroke="#A1874D" stroke-width="3.5" stroke-linecap="round" stroke-linejoin="round"/>
<path d="M104.375 54C110.375 59 112.375 65 110.375 71" stroke="#A1874D" stroke-width="3.5" stroke-linecap="round" stroke-linejoin="round"/>
<path d="M100.375 61C104.375 63 107.375 67 108.375 71" stroke="#A1874D" stroke-width="3.5" stroke-linecap="round" stroke-linejoin="round"/>
</svg>
