<svg width="140" height="140" viewBox="0 0 140 140" fill="none" xmlns="http://www.w3.org/2000/svg">
<circle cx="70" cy="70" r="68.5" stroke="#A1874D" stroke-width="3"/>
<path d="M47.6252 43C43.6252 37 49.6252 33 47.6252 27M63.6252 45C59.6252 39 65.6252 35 63.6252 29M79.6252 43C75.6252 37 81.6252 33 79.6252 27" stroke="#A1874D" stroke-width="3.5" stroke-linecap="round" stroke-linejoin="round"/>
<path d="M29.625 65C29.625 56 37.625 49 47.625 49H81.625C94.625 49 103.625 56 103.625 65V83C103.625 95 93.625 105 81.625 105H49.625C37.625 105 29.625 97 29.625 85V65Z" stroke="#A1874D" stroke-width="3.5" stroke-linecap="round" stroke-linejoin="round"/>
<path d="M103.625 69C111.625 69 115.625 73 115.625 79C115.625 85 111.625 89 103.625 89" stroke="#A1874D" stroke-width="3.5" stroke-linecap="round" stroke-linejoin="round"/>
<path d="M39.625 59H91.625" stroke="#A1874D" stroke-width="3.5" stroke-linecap="round" stroke-linejoin="round"/>
<path d="M23.625 113H115.625" stroke="#A1874D" stroke-width="3.5" stroke-linecap="round" stroke-linejoin="round"/>
<path d="M33.625 113L43.625 103H95.625L105.625 113" stroke="#A1874D" stroke-width="3.5" stroke-linecap="round" stroke-linejoin="round"/>
</svg>
