<svg width="140" height="140" viewBox="0 0 140 140" fill="none" xmlns="http://www.w3.org/2000/svg">
<circle cx="70" cy="70" r="68.5" stroke="#A1874D" stroke-width="3"/>
<path d="M52.875 22C57.875 28 62.875 30 69.875 30C76.875 30 81.875 28 86.875 22" stroke="#A1874D" stroke-width="3.5" stroke-linecap="round" stroke-linejoin="round"/>
<path d="M58.8746 20C54.8746 23 53.8746 29 58.8746 32M69.8746 16C65.8746 21 65.8746 27 69.8746 31M80.8746 20C84.8746 23 85.8746 29 80.8746 32" stroke="#A1874D" stroke-width="3.5" stroke-linecap="round" stroke-linejoin="round"/>
<path d="M63.875 30V46M75.875 30V46" stroke="#A1874D" stroke-width="3.5" stroke-linecap="round" stroke-linejoin="round"/>
<path d="M47.875 42C41.875 50 38.875 62 38.875 82C38.875 100 39.875 109 42.875 117C44.875 122 55.875 124 69.875 124C83.875 124 94.875 122 96.875 117C99.875 109 100.875 100 100.875 82C100.875 62 97.875 50 91.875 42" stroke="#A1874D" stroke-width="3.5" stroke-linecap="round" stroke-linejoin="round"/>
<path d="M38.875 114C43.875 118 54.875 120 69.875 120C84.875 120 95.875 118 100.875 114" stroke="#A1874D" stroke-width="3.5" stroke-linecap="round" stroke-linejoin="round"/>
<path d="M61.875 74C65.875 66 75.875 66 79.875 74C77.875 81 71.875 87 61.875 92C51.875 87 45.875 81 43.875 74C47.875 66 57.875 66 61.875 74Z" stroke="#A1874D" stroke-width="3.5" stroke-linecap="round" stroke-linejoin="round"/>
<path d="M65.875 76L69.875 82L73.875 76M63.875 86H75.875" stroke="#A1874D" stroke-width="3.5" stroke-linecap="round" stroke-linejoin="round"/>
</svg>
